<svg xmlns="http://www.w3.org/2000/svg" viewBox="0 0 512 512" width="100%" height="100%">
  <!-- Phone Body -->
  <rect x="156" y="96" width="200" height="320" rx="36" fill="#FFFFFF" fill-opacity="0.9" />
  <!-- Phone Screen -->
  <rect x="174" y="138" width="164" height="228" rx="16" fill="#000000" fill-opacity="0.3" />
  <!-- Screen Letter 'P' -->
  <path d="M214 175 H260 C279 175 294 188 294 206 C294 224 279 237 260 237 H236 V285 H214 V175 Z M236 195 V217 H258 C266 217 272 212 272 206 C272 200 266 195 258 195 H236 Z" fill="#FFFFFF" />
  <!-- Fix checkmark badge -->
  <circle cx="286" cy="268" r="16" fill="#FFFFFF" />
  <path d="M279 268 L284 273 L293 263" stroke="#4F46E5" stroke-width="3.5" stroke-linecap="round" stroke-linejoin="round" fill="none" />
  <!-- Speaker & Home Bar -->
  <rect x="231" y="116" width="50" height="6" rx="3" fill="#FFFFFF" fill-opacity="0.6" />
  <rect x="236" y="384" width="40" height="6" rx="3" fill="#FFFFFF" fill-opacity="0.6" />
</svg>
